<svg xmlns="http://www.w3.org/2000/svg" width="130.937" height="199.687" viewBox="0 0 130.937 199.687">
  <g>
    <rect width="57.187" height="18.125" x="33.438" y="130" fill="rgb(141,209,211)" rx="0" ry="0"/>
    <path fill="rgb(235,210,82)" fill-rule="evenodd" d="M66.875 98.75s30.625-8.125 37.1875-37.5c1.5625-7.8125-2.5-15 11.5625-26.5625 9.6875-8.125 12.1875-23.75 12.5-31.25-34.375 0-52.8125 22.8125-62.1875 41.25-16.875 33.75.9375 54.0625.9375 54.0625z"/>
    <path fill="rgb(209,44,30)" fill-rule="evenodd" d="M120.9375 196.5625h-117.5v-40c0-4.6875 3.75-8.4375 8.4375-8.4375H112.5c4.6875 0 8.4375 3.75 8.4375 8.4375v40z"/>
    <g>
      <path fill="rgb(51,13,0)" fill-rule="evenodd" d="M61.87496185 122.18751907c-1.8749237-.31251907-2.8125763-2.18753814-2.49996185-4.06255722 1.5625-6.5624237 2.81238556-12.18748092 4.37488556-17.4999237C60.9375 97.18751907 46.24996186 76.24998093 62.5 43.43748093 72.1874237 23.4375 91.56246185 0 127.81238556 0c.93765259 0 1.5625.31251907 2.18753815.93746185.62503814.62503815.93746185 1.5625.93746185 2.50005722C130.62496186 14.0625 126.8749237 29.37498093 117.1875 37.5c-9.375 7.49998093-9.375 12.5-9.68761444 18.12496185 0 1.87501908 0 4.06255722-.62484741 6.25-5.31253815 25.62503815-27.8125763 35.9375-36.25011444 39.0625-1.5625 5.62505722-3.125 11.56253815-4.6875 18.4375763C65.625 121.24996185 64.0625 122.18751907 62.5 122.18751907h-.62503815zm62.1875763-115.31248092C93.75 8.43753815 77.18753815 29.06255722 68.75 46.25005722 57.8125 68.43757629 62.5 84.375 66.25003815 91.87507629 75 62.81251907 83.1249237 50.62503815 83.43753815 50c.93746185-1.5625 3.125-1.8749237 4.6875-.93746185s1.8749237 3.125.93746185 4.6875c-.3124237 0-7.5000763 11.56253814-15.9374237 38.74998092 9.06238555-4.37498092 23.4375-13.74998092 27.1873474-31.87494278.62503815-1.5625.62503815-3.125.62503815-5.00001907.31261444-6.25.62503815-13.74998093 12.1875763-23.4375 7.18746185-6.25 10.31246185-17.50001907 10.9375-25.31251907z"/>
      <path fill="rgb(51,13,0)" fill-rule="evenodd" d="M102.18753815 144.68746185H94.0624237v-14.68744278c0-1.87501907-1.5625-3.43751907-3.43742371-3.43751907H33.43753815c-1.87511444 0-3.43761444 1.5625-3.43761444 3.43751907v14.68744278H21.875c-12.1875763 0-21.875 10.00003815-21.875 21.875v29.6875c0 1.87501908 1.5625 3.43751908 3.4374237 3.43751908h117.1875c1.87511445 0 3.43761445-1.5625 3.43761445-3.43751908v-29.6875c.3124237-11.87496185-9.68761444-21.875-21.875-21.875zm-65.3125763-11.2499237H87.5v11.25001907H36.87496185v-11.25001907zm-29.9999237 59.68751907H117.1875v-26.2500763c0-8.1249237-6.5624237-14.99996185-14.99996185-14.99996185H21.875c-8.1249237 0-14.99996185 6.56251908-14.99996185 14.99996186v26.25007629z"/>
    </g>
  </g>
</svg>
